Coordinates
version=1
nRows=14
nColumns=24
inDegrees=yes

Units are S.I. units (second, meters, Newtons, ...)
Angles are in degrees.

endheader
time	pelvis_tilt	pelvis_list	pelvis_rotation	pelvis_tx	pelvis_ty	pelvis_tz	hip_flexion_r	hip_adduction_r	hip_rotation_r	knee_angle_r	ankle_angle_r	subtalar_angle_r	mtp_angle_r	hip_flexion_l	hip_adduction_l	hip_rotation_l	knee_angle_l	ankle_angle_l	subtalar_angle_l	mtp_angle_l	lumbar_extension	lumbar_bending	lumbar_rotation
      1.39566667	     -1.62653927	     -0.03175999	    -14.83079958	      0.95686158	      0.97805134	      0.35100472	    -19.43291264	     -1.24083070	      9.13001792	     -5.09146169	     12.16354297	     -3.42450448	     12.06426357	     25.42729343	     -4.64647169	    -15.03533154	      5.66755897	      5.07192639	    -10.05152529	      4.03662003	     -1.44533262	      0.44143838	     12.42423885
      1.39983333	     -1.60599126	      0.05178701	    -14.96741244	      0.96306325	      0.97757068	      0.35078734	    -19.57724448	     -1.46088135	      9.11450497	     -5.48581922	     12.00657766	     -3.38164521	     12.07473920	     25.42191849	     -4.61905035	    -14.98334499	      5.20293252	      5.24804389	    -10.24509345	      4.03833126	     -1.40479317	      0.31655115	     12.49896687
      1.40400000	     -1.58217453	      0.15610527	    -15.10921840	      0.96932055	      0.97712124	      0.35055670	    -19.70728579	     -1.70606373	      9.10119320	     -5.90519877	     11.82147339	     -3.35333607	     12.08621722	     25.40993586	     -4.56684726	    -14.94288164	      4.71103207	      5.34884409	    -10.44575803	      4.03999436	     -1.39413027	      0.18477675	     12.56701275
      1.40816667	     -1.55160557	      0.27209628	    -15.24645655	      0.97563500	      0.97669412	      0.35028936	    -19.80361767	     -1.96601560	      8.96107928	     -6.40321986	     11.71792683	     -3.08434399	     12.18979487	     25.36976881	     -4.48732010	    -14.81622628	      4.23591190	      5.37038896	    -10.80646578	      4.05469952	     -1.34292772	      0.01603535	     12.88475100
      1.41233333	     -1.52173868	      0.40678727	    -15.37079925	      0.98199353	      0.97629874	      0.34999443	    -19.89940638	     -2.24020821	      8.86711001	     -6.89209832	     11.53834319	     -2.95758892	     12.33770756	     25.33603837	     -4.37919522	    -14.70956613	      3.72722824	      5.35878426	    -11.13910617	      4.07937320	     -1.29309495	     -0.16538269	     13.00953993
      1.41650000	     -1.48550405	      0.55643283	    -15.49950534	      0.98842965	      0.97594829	      0.34972247	    -19.99824390	     -2.53033369	      8.80869595	     -7.38089270	     11.29514176	     -2.92550538	     12.41948769	     25.29416312	     -4.25406547	    -14.65372298	      3.19504852	      5.36437490	    -11.36672119	      4.09289010	     -1.22680741	     -0.37396120	     13.08365635
      1.42066667	     -1.44879029	      0.72035080	    -15.63055453	      0.99488063	      0.97561906	      0.34938081	    -20.04474247	     -2.84095749	      8.65723104	     -7.96418547	     11.11815463	     -2.70458483	     12.68945782	     25.23379866	     -4.09865963	    -14.54542651	      2.70248317	      5.17269162	    -11.78347771	      4.13942159	     -1.18800894	     -0.57131966	     13.29906501
      1.42483333	     -1.41889905	      0.90810308	    -15.72570823	      1.00141207	      0.97530568	      0.34903656	    -20.11012748	     -3.15729825	      8.56048043	     -8.49005968	     10.81327208	     -2.68021523	     12.83626343	     25.21004712	     -3.91230698	    -14.47970769	      2.14282439	      5.04884857	    -12.01218415	      4.16835707	     -1.10333557	     -0.82892307	     13.35076801
      1.42900000	     -1.37605100	      1.09881612	    -15.84439510	      1.00794580	      0.97504632	      0.34864456	    -20.11444796	     -3.49249264	      8.36897283	     -9.15622329	     10.60653565	     -2.44661192	     13.25819212	     25.13191159	     -3.70814585	    -14.37274825	      1.66747940	      4.73778355	    -12.47397762	      4.25018998	     -1.04574313	     -1.04717775	     13.53382729
      1.43316667	     -1.34464160	      1.31864232	    -15.91957141	      1.01458026	      0.97479977	      0.34824977	    -20.15083547	     -3.83345352	      8.25381732	     -9.72613176	     10.22576415	     -2.46344047	     13.41578329	     25.10866767	     -3.47054718	    -14.35869054	      1.11140507	      4.48908070	    -12.66053391	      4.28321180	     -0.93878943	     -1.34160933	     13.56204353
      1.43733333	     -1.30065386	      1.53836430	    -16.01619860	      1.02117802	      0.97459435	      0.34778068	    -20.10909559	     -4.19303238	      8.01375596	    -10.46872096	      9.99131303	     -2.19162775	     13.94786922	     25.04470898	     -3.21811299	    -14.26410332	      0.62472739	      4.05826941	    -13.13092377	      4.39411788	     -0.86284770	     -1.58932783	     13.72985425
      1.44150000	     -1.25818119	      1.78628146	    -16.06831065	      1.02789553	      0.97442938	      0.34734229	    -20.11575731	     -4.55561027	      7.86192956	    -11.10572500	      9.53088389	     -2.24864640	     14.11724607	     25.01139029	     -2.93268167	    -14.26612266	      0.07823980	      3.73371066	    -13.28367997	      4.43112237	     -0.74235406	     -1.91760378	     13.74236030
      1.44566667	     -1.22706790	      2.03768929	    -16.10801445	      1.03454855	      0.97426197	      0.34680061	    -20.03149114	     -4.91972382	      7.60825318	    -11.88671493	      9.12672062	     -2.22768999	     20.89102223	     24.97453198	     -2.62322105	    -14.13370650	     -0.40301355	      3.19740830	    -13.75204379	      6.05323592	     -0.65003301	     -2.20981629	     13.80166371
      1.44983333	     -1.17548310	      2.31171615	    -16.14572764	      1.04131165	      0.97418721	      0.34629058	    -19.98906036	     -5.30900609	      7.41539553	    -12.61734895	      8.60345338	     -2.17238703	     20.91227424	     24.93798219	     -2.29582932	    -14.17462824	     -0.94772516	      2.79293215	    -13.87970799	      6.06249036	     -0.54532704	     -2.55497490	     13.83938053
